<svg xmlns="http://www.w3.org/2000/svg" width="1em" height="1em" viewBox="0 0 24 24"><g fill="none"><path fill="url(#SVGOsJHcbKe)" d="M9 5a1 1 0 0 1 1-1h11a1 1 0 1 1 0 2H10a1 1 0 0 1-1-1"/><path fill="url(#SVGOsJHcbKe)" d="M9 12a1 1 0 0 1 1-1h11a1 1 0 1 1 0 2H10a1 1 0 0 1-1-1"/><path fill="url(#SVGOsJHcbKe)" d="M9 19a1 1 0 0 1 1-1h11a1 1 0 1 1 0 2H10a1 1 0 0 1-1-1"/><path fill="url(#SVGFVe17dcM)" d="M6.248 16.002c.966 0 1.75.784 1.75 1.75v2.498A1.75 1.75 0 0 1 6.248 22H3.75A1.75 1.75 0 0 1 2 20.25v-2.498c0-.966.784-1.75 1.75-1.75zm0-7c.966 0 1.75.783 1.75 1.75v2.497a1.75 1.75 0 0 1-1.75 1.75H3.75A1.75 1.75 0 0 1 2 13.249V10.75C2 9.784 2.784 9 3.75 9zm0-7.002c.966 0 1.75.784 1.75 1.75v2.498a1.75 1.75 0 0 1-1.75 1.75H3.75A1.75 1.75 0 0 1 2 6.248V3.75C2 2.784 2.784 2 3.75 2z"/><defs><linearGradient id="SVGOsJHcbKe" x1="7.05" x2="20.7" y1="1.714" y2="20" gradientUnits="userSpaceOnUse"><stop stop-color="#36dff1"/><stop offset="1" stop-color="#0094f0"/></linearGradient><linearGradient id="SVGFVe17dcM" x1="3.426" x2="6.483" y1="4.659" y2="20.934" gradientUnits="userSpaceOnUse"><stop offset=".125" stop-color="#9c6cfe"/><stop offset="1" stop-color="#7a41dc"/></linearGradient></defs></g></svg>