<svg xmlns="http://www.w3.org/2000/svg" width="1em" height="1em" viewBox="0 0 24 24"><g fill="none"><path fill="url(#SVGZIEsdeVA)" d="M12 22c3.866 0 7-1.79 7-4v-2H5v2c0 2.21 3.134 4 7 4"/><ellipse cx="12" cy="16" fill="url(#SVGXBS2obYu)" rx="7" ry="4"/><path fill="url(#SVG5YNZjDiW)" d="M12 17c3.866 0 7-1.79 7-4v-2H5v2c0 2.21 3.134 4 7 4"/><ellipse cx="12" cy="11" fill="url(#SVG6AQTFd2j)" rx="7" ry="4"/><path fill="url(#SVGWSD9yiBX)" d="M12 12c3.866 0 7-1.79 7-4V6H5v2c0 2.21 3.134 4 7 4"/><ellipse cx="12" cy="6" fill="url(#SVGVe4IndEG)" rx="7" ry="4"/><defs><linearGradient id="SVGZIEsdeVA" x1="8.713" x2="10.841" y1="17.472" y2="22.442" gradientUnits="userSpaceOnUse"><stop stop-color="#ffa43d"/><stop offset="1" stop-color="#fb5937"/></linearGradient><linearGradient id="SVGXBS2obYu" x1="19.02" x2="11.741" y1="19.997" y2="9.577" gradientUnits="userSpaceOnUse"><stop stop-color="#ff8a69"/><stop offset="1" stop-color="#ffcd0f"/></linearGradient><linearGradient id="SVG5YNZjDiW" x1="8.713" x2="10.841" y1="12.472" y2="17.442" gradientUnits="userSpaceOnUse"><stop stop-color="#ffa43d"/><stop offset="1" stop-color="#fb5937"/></linearGradient><linearGradient id="SVG6AQTFd2j" x1="19.02" x2="11.741" y1="14.997" y2="4.577" gradientUnits="userSpaceOnUse"><stop stop-color="#ff8a69"/><stop offset="1" stop-color="#ffcd0f"/></linearGradient><linearGradient id="SVGWSD9yiBX" x1="8.713" x2="10.841" y1="7.472" y2="12.442" gradientUnits="userSpaceOnUse"><stop stop-color="#ffa43d"/><stop offset="1" stop-color="#fb5937"/></linearGradient><linearGradient id="SVGVe4IndEG" x1="19.02" x2="11.741" y1="9.997" y2="-.423" gradientUnits="userSpaceOnUse"><stop stop-color="#ff8a69"/><stop offset="1" stop-color="#ffcd0f"/></linearGradient></defs></g></svg>