<svg xmlns="http://www.w3.org/2000/svg" width="1em" height="1em" viewBox="0 0 20 20"><g fill="none"><path fill="url(#SVGonYmHbhG)" d="M16 17V5.5a.5.5 0 0 0-.812-.39l-4.735 3.787l-3.205-1.831a.5.5 0 0 0-.451-.023L3 8.731V17z"/><path fill="url(#SVGq4LgSmhd)" fill-opacity=".3" d="M16 17V5.5a.5.5 0 0 0-.812-.39l-4.735 3.787l-3.205-1.831a.5.5 0 0 0-.451-.023L3 8.731V17z"/><path fill="url(#SVG9uY4Abmy)" fill-opacity=".3" d="M16 17V5.5a.5.5 0 0 0-.812-.39l-4.735 3.787l-3.205-1.831a.5.5 0 0 0-.451-.023L3 8.731V17z"/><path fill="url(#SVGMBB0ucoy)" fill-opacity=".3" d="M16 17V5.5a.5.5 0 0 0-.812-.39l-4.735 3.787l-3.205-1.831a.5.5 0 0 0-.451-.023L3 8.731V17z"/><path fill="url(#SVGtFhs2chS)" d="M2.75 2a.75.75 0 0 1 .75.75v12.5c0 .69.56 1.25 1.25 1.25h12.5a.75.75 0 0 1 0 1.5H4.75A2.75 2.75 0 0 1 2 15.25V2.75A.75.75 0 0 1 2.75 2"/><defs><linearGradient id="SVGonYmHbhG" x1="-1.5" x2="20" y1="6.5" y2="19" gradientUnits="userSpaceOnUse"><stop offset=".164" stop-color="#3bd5ff"/><stop offset=".537" stop-color="#9c6cfe"/><stop offset=".908" stop-color="#e656eb"/></linearGradient><linearGradient id="SVG9uY4Abmy" x1="9.5" x2="9.5" y1="15" y2="17" gradientUnits="userSpaceOnUse"><stop stop-color="#163697" stop-opacity="0"/><stop offset="1" stop-color="#163697"/></linearGradient><linearGradient id="SVGMBB0ucoy" x1="5" x2="3" y1="13.5" y2="13.5" gradientUnits="userSpaceOnUse"><stop stop-color="#163697" stop-opacity="0"/><stop offset="1" stop-color="#163697"/></linearGradient><linearGradient id="SVGtFhs2chS" x1="16.5" x2="2.498" y1="3" y2="23.849" gradientUnits="userSpaceOnUse"><stop stop-color="#70777d"/><stop offset="1" stop-color="#b9c0c7"/></linearGradient><radialGradient id="SVGq4LgSmhd" cx="0" cy="0" r="1" gradientTransform="matrix(-10.00002 8.99995 -9.1043 -10.11597 14 7)" gradientUnits="userSpaceOnUse"><stop offset=".636" stop-color="#0fafff" stop-opacity="0"/><stop offset=".962" stop-color="#0067bf"/></radialGradient></defs></g></svg>