<svg xmlns="http://www.w3.org/2000/svg" width="1em" height="1em" viewBox="0 0 24 24"><g fill="none"><path fill="url(#SVGnnbc3chc)" d="M15 6a1 1 0 1 0 0 2h2.086l-3.836 3.836l-1.793-1.793a1 1 0 0 0-1.414 0l-3.25 3.25a1 1 0 1 0 1.414 1.414l2.543-2.543l1.793 1.793a1 1 0 0 0 1.414 0l4.544-4.543L18.5 11.5a1 1 0 1 0 2 0l.002-4.5a1 1 0 0 0-1-1z"/><path fill="url(#SVG7R1Yvc8m)" d="M5 4a1 1 0 0 0-2 0v13.5A3.5 3.5 0 0 0 6.5 21H20a1 1 0 1 0 0-2H6.5A1.5 1.5 0 0 1 5 17.5z"/><defs><linearGradient id="SVGnnbc3chc" x1="5.423" x2="24.458" y1="14.5" y2="7.097" gradientUnits="userSpaceOnUse"><stop stop-color="#0fafff"/><stop offset=".445" stop-color="#9c6cfe"/><stop offset=".957" stop-color="#e656eb"/></linearGradient><linearGradient id="SVG7R1Yvc8m" x1="19.313" x2="3.56" y1="4.125" y2="27.58" gradientUnits="userSpaceOnUse"><stop stop-color="#70777d"/><stop offset="1" stop-color="#b9c0c7"/></linearGradient></defs></g></svg>