<svg xmlns="http://www.w3.org/2000/svg" width="1em" height="1em" viewBox="0 0 24 24"><g fill="none"><path fill="url(#SVGYXOHTbBt)" d="M18.328 7.117A7.6 7.6 0 0 0 20 6v12c0 2.21-3.582 4-8 4s-8-1.79-8-4V6c.502.45 1.084.823 1.672 1.117c1.697.848 3.936 1.33 6.328 1.33s4.63-.482 6.328-1.33"/><path fill="url(#SVGZaSaQdiK)" fill-opacity=".7" d="M18.328 7.117A7.6 7.6 0 0 0 20 6v12c0 2.21-3.582 4-8 4s-8-1.79-8-4V6c.502.45 1.084.823 1.672 1.117c1.697.848 3.936 1.33 6.328 1.33s4.63-.482 6.328-1.33"/><path fill="url(#SVG4X4Wmbup)" d="M12 10c4.418 0 8-1.79 8-4s-3.582-4-8-4s-8 1.79-8 4s3.582 4 8 4"/><defs><linearGradient id="SVGYXOHTbBt" x1="7.777" x2="16.435" y1="2.396" y2="20.577" gradientUnits="userSpaceOnUse"><stop stop-color="#29c3ff"/><stop offset="1" stop-color="#367af2"/></linearGradient><linearGradient id="SVGZaSaQdiK" x1="14.476" x2="17.647" y1="7.965" y2="23.721" gradientUnits="userSpaceOnUse"><stop offset=".533" stop-color="#ff6ce8" stop-opacity="0"/><stop offset="1" stop-color="#ff6ce8"/></linearGradient><linearGradient id="SVG4X4Wmbup" x1="26" x2="16.755" y1="14" y2="-2.828" gradientUnits="userSpaceOnUse"><stop stop-color="#58aafe"/><stop offset="1" stop-color="#6ce0ff"/></linearGradient></defs></g></svg>