<svg xmlns="http://www.w3.org/2000/svg" width="1em" height="1em" viewBox="0 0 24 24"><g fill="none"><path fill="url(#SVGqhLd7dwL)" d="M17 19.5c-.732 0-1.357-.07-1.89-.192C12 18.606 12 16.2 12 16.2a2.2 2.2 0 0 1 2.2-2.2c1.872 0 3.743-.012 5.614 0A2.2 2.2 0 0 1 22 16.2s0 2.875-4.065 3.258q-.434.041-.935.042"/><path fill="url(#SVGByUbdb0y)" fill-opacity=".5" d="M17 19.5c-.732 0-1.357-.07-1.89-.192C12 18.606 12 16.2 12 16.2a2.2 2.2 0 0 1 2.2-2.2c1.872 0 3.743-.012 5.614 0A2.2 2.2 0 0 1 22 16.2s0 2.875-4.065 3.258q-.434.041-.935.042"/><path fill="url(#SVG0EhIwdEj)" d="M4.25 14A2.25 2.25 0 0 0 2 16.25v.25S2 21 8 21s6-4.5 6-4.5v-.25A2.25 2.25 0 0 0 11.75 14z"/><path fill="url(#SVGdYGERc8d)" d="M4.25 14A2.25 2.25 0 0 0 2 16.25v.25S2 21 8 21s6-4.5 6-4.5v-.25A2.25 2.25 0 0 0 11.75 14z"/><path fill="url(#SVGsyGyscio)" d="M17 12a3 3 0 1 0 0-6a3 3 0 0 0 0 6"/><path fill="url(#SVGzwmkpbrf)" d="M8 12a4 4 0 1 0 0-8a4 4 0 0 0 0 8"/><defs><linearGradient id="SVGqhLd7dwL" x1="14.378" x2="16.3" y1="14.727" y2="20.301" gradientUnits="userSpaceOnUse"><stop offset=".125" stop-color="#9c6cfe"/><stop offset="1" stop-color="#7a41dc"/></linearGradient><linearGradient id="SVG0EhIwdEj" x1="4.854" x2="7.41" y1="14.931" y2="21.927" gradientUnits="userSpaceOnUse"><stop offset=".125" stop-color="#bd96ff"/><stop offset="1" stop-color="#9c6cfe"/></linearGradient><linearGradient id="SVGdYGERc8d" x1="8" x2="11.607" y1="13.167" y2="24.721" gradientUnits="userSpaceOnUse"><stop stop-color="#885edb" stop-opacity="0"/><stop offset="1" stop-color="#e362f8"/></linearGradient><linearGradient id="SVGsyGyscio" x1="15.427" x2="18.485" y1="6.798" y2="11.68" gradientUnits="userSpaceOnUse"><stop offset=".125" stop-color="#9c6cfe"/><stop offset="1" stop-color="#7a41dc"/></linearGradient><linearGradient id="SVGzwmkpbrf" x1="5.902" x2="9.98" y1="5.063" y2="11.574" gradientUnits="userSpaceOnUse"><stop offset=".125" stop-color="#bd96ff"/><stop offset="1" stop-color="#9c6cfe"/></linearGradient><radialGradient id="SVGByUbdb0y" cx="0" cy="0" r="1" gradientTransform="rotate(-6.955 143.157 -79.921)scale(6.62994 6.49284)" gradientUnits="userSpaceOnUse"><stop offset=".392" stop-color="#3b148a"/><stop offset="1" stop-color="#3b148a" stop-opacity="0"/></radialGradient></defs></g></svg>